HIERARCHY
ROOT Hips
{
  OFFSET 5.80788e-005 67.184 3.4734
  CHANNELS 6 Xposition Yposition Zposition Zrotation Xrotation Yrotation
  JOINT Chest
  {
    OFFSET 0 8.7983 -4.7612
    CHANNELS 6 Xposition Yposition Zposition Zrotation Xrotation Yrotation
    JOINT Chest2
    {
      OFFSET 0 8.0291 0.4195
      CHANNELS 6 Xposition Yposition Zposition Zrotation Xrotation Yrotation
      JOINT Chest3
      {
        OFFSET 0 9.9351 -2.2114
        CHANNELS 6 Xposition Yposition Zposition Zrotation Xrotation Yrotation
        JOINT Neck
        {
          OFFSET 0 22.3885 -0.4656
          CHANNELS 6 Xposition Yposition Zposition Zrotation Xrotation Yrotation
          JOINT Head
          {
            OFFSET -0.0001 12.643 3.4389
            CHANNELS 6 Xposition Yposition Zposition Zrotation Xrotation Yrotation
            End Site
            {
              OFFSET 0.0001 17.6655 0.5274
            }
          }
        }
        JOINT LeftCollar
        {
          OFFSET 2.2603 21.606 7.4023
          CHANNELS 6 Xposition Yposition Zposition Zrotation Xrotation Yrotation
          JOINT LeftShoulder
          {
            OFFSET 13.5163 -1.1332 -5.0146
            CHANNELS 6 Xposition Yposition Zposition Zrotation Xrotation Yrotation
            JOINT LeftElbow
            {
              OFFSET -0.0995 -28.05 -0.2431
              CHANNELS 6 Xposition Yposition Zposition Zrotation Xrotation Yrotation
              JOINT LeftWrist
              {
                OFFSET 0.0679 -23.3996 -0.1402
                CHANNELS 6 Xposition Yposition Zposition Zrotation Xrotation Yrotation
                JOINT LeftFinger1
                {
                  OFFSET 0.7932 -9.069 2.5189
                  CHANNELS 6 Xposition Yposition Zposition Zrotation Xrotation Yrotation
                  JOINT LeftFinger11
                  {
                    OFFSET -0.8272 -3.3923 0.5977
                    CHANNELS 6 Xposition Yposition Zposition Zrotation Xrotation Yrotation
                    JOINT LeftFinger12
                    {
                      OFFSET -0.5649 -2.3158 0.4082
                      CHANNELS 6 Xposition Yposition Zposition Zrotation Xrotation Yrotation
                      End Site
                      {
                        OFFSET -0.4919 -1.6479 0.2673
                      }
                    }
                  }
                }
                JOINT LeftFinger2
                {
                  OFFSET 0.9159 -9.2044 0.2193
                  CHANNELS 6 Xposition Yposition Zposition Zrotation Xrotation Yrotation
                  JOINT LeftFinger21
                  {
                    OFFSET 0.0117 -4.1944 -0.0248
                    CHANNELS 6 Xposition Yposition Zposition Zrotation Xrotation Yrotation
                    JOINT LeftFinger22
                    {
                      OFFSET 0.0071 -2.3249 -0.0142
                      CHANNELS 6 Xposition Yposition Zposition Zrotation Xrotation Yrotation
                      End Site
                      {
                        OFFSET -0.1475 -2.0882 0.0028
                      }
                    }
                  }
                }
                JOINT LeftFinger3
                {
                  OFFSET 0.6113 -8.7231 -2.0637
                  CHANNELS 6 Xposition Yposition Zposition Zrotation Xrotation Yrotation
                  JOINT LeftFinger31
                  {
                    OFFSET -0.1927 -3.8059 -0.2383
                    CHANNELS 6 Xposition Yposition Zposition Zrotation Xrotation Yrotation
                    JOINT LeftFinger32
                    {
                      OFFSET -0.1091 -2.1688 -0.1362
                      CHANNELS 6 Xposition Yposition Zposition Zrotation Xrotation Yrotation
                      End Site
                      {
                        OFFSET -0.2358 -1.9176 -0.0906
                      }
                    }
                  }
                }
                JOINT LeftFinger4
                {
                  OFFSET -0.6151 -8.0947 -3.5641
                  CHANNELS 6 Xposition Yposition Zposition Zrotation Xrotation Yrotation
                  JOINT LeftFinger41
                  {
                    OFFSET -0.4882 -2.341 -0.6462
                    CHANNELS 6 Xposition Yposition Zposition Zrotation Xrotation Yrotation
                    JOINT LeftFinger42
                    {
                      OFFSET -0.3575 -1.7167 -0.4742
                      CHANNELS 6 Xposition Yposition Zposition Zrotation Xrotation Yrotation
                      End Site
                      {
                        OFFSET -0.4187 -1.5237 -0.3496
                      }
                    }
                  }
                }
                JOINT LeftFinger0
                {
                  OFFSET -1.42 -1.8761 1.4223
                  CHANNELS 6 Xposition Yposition Zposition Zrotation Xrotation Yrotation
                  JOINT LeftFinger01
                  {
                    OFFSET -1.1471 -3.4929 2.6334
                    CHANNELS 6 Xposition Yposition Zposition Zrotation Xrotation Yrotation
                    JOINT LeftFinger02
                    {
                      OFFSET -0.823 -2.3 1.6571
                      CHANNELS 6 Xposition Yposition Zposition Zrotation Xrotation Yrotation
                      End Site
                      {
                        OFFSET -0.5822 -1.6914 1.1582
                      }
                    }
                  }
                }
              }
            }
          }
        }
        JOINT RightCollar
        {
          OFFSET -2.2603 21.606 7.4023
          CHANNELS 6 Xposition Yposition Zposition Zrotation Xrotation Yrotation
          JOINT RightShoulder
          {
            OFFSET -13.5187 -1.1334 -5.0155
            CHANNELS 6 Xposition Yposition Zposition Zrotation Xrotation Yrotation
            JOINT RightElbow
            {
              OFFSET 0.0994 -28.0499 -0.2431
              CHANNELS 6 Xposition Yposition Zposition Zrotation Xrotation Yrotation
              JOINT RightWrist
              {
                OFFSET -0.0679 -23.3996 -0.1402
                CHANNELS 6 Xposition Yposition Zposition Zrotation Xrotation Yrotation
                JOINT RightFinger1
                {
                  OFFSET -0.7932 -9.0691 2.5189
                  CHANNELS 6 Xposition Yposition Zposition Zrotation Xrotation Yrotation
                  JOINT RightFinger11
                  {
                    OFFSET 0.8272 -3.3923 0.5977
                    CHANNELS 6 Xposition Yposition Zposition Zrotation Xrotation Yrotation
                    JOINT RightFinger12
                    {
                      OFFSET 0.565 -2.3158 0.4082
                      CHANNELS 6 Xposition Yposition Zposition Zrotation Xrotation Yrotation
                      End Site
                      {
                        OFFSET 0.4919 -1.6479 0.2673
                      }
                    }
                  }
                }
                JOINT RightFinger2
                {
                  OFFSET -0.916 -9.2044 0.2193
                  CHANNELS 6 Xposition Yposition Zposition Zrotation Xrotation Yrotation
                  JOINT RightFinger21
                  {
                    OFFSET -0.0117 -4.1944 -0.0248
                    CHANNELS 6 Xposition Yposition Zposition Zrotation Xrotation Yrotation
                    JOINT RightFinger22
                    {
                      OFFSET -0.0071 -2.3249 -0.0142
                      CHANNELS 6 Xposition Yposition Zposition Zrotation Xrotation Yrotation
                      End Site
                      {
                        OFFSET 0.1475 -2.0882 0.0028
                      }
                    }
                  }
                }
                JOINT RightFinger3
                {
                  OFFSET -0.6113 -8.7231 -2.0637
                  CHANNELS 6 Xposition Yposition Zposition Zrotation Xrotation Yrotation
                  JOINT RightFinger31
                  {
                    OFFSET 0.1927 -3.8059 -0.2383
                    CHANNELS 6 Xposition Yposition Zposition Zrotation Xrotation Yrotation
                    JOINT RightFinger32
                    {
                      OFFSET 0.1091 -2.1688 -0.1362
                      CHANNELS 6 Xposition Yposition Zposition Zrotation Xrotation Yrotation
                      End Site
                      {
                        OFFSET 0.2358 -1.9176 -0.0906
                      }
                    }
                  }
                }
                JOINT RightFinger4
                {
                  OFFSET 0.6151 -8.0947 -3.564
                  CHANNELS 6 Xposition Yposition Zposition Zrotation Xrotation Yrotation
                  JOINT RightFinger41
                  {
                    OFFSET 0.4882 -2.341 -0.6462
                    CHANNELS 6 Xposition Yposition Zposition Zrotation Xrotation Yrotation
                    JOINT RightFinger42
                    {
                      OFFSET 0.3574 -1.7166 -0.4742
                      CHANNELS 6 Xposition Yposition Zposition Zrotation Xrotation Yrotation
                      End Site
                      {
                        OFFSET 0.4187 -1.5237 -0.3496
                      }
                    }
                  }
                }
                JOINT RightFinger0
                {
                  OFFSET 1.4199 -1.8761 1.4221
                  CHANNELS 6 Xposition Yposition Zposition Zrotation Xrotation Yrotation
                  JOINT RightFinger01
                  {
                    OFFSET 1.1472 -3.4929 2.6336
                    CHANNELS 6 Xposition Yposition Zposition Zrotation Xrotation Yrotation
                    JOINT RightFinger02
                    {
                      OFFSET 0.8229 -2.3 1.6571
                      CHANNELS 6 Xposition Yposition Zposition Zrotation Xrotation Yrotation
                      End Site
                      {
                        OFFSET 0.5822 -1.6914 1.1582
                      }
                    }
                  }
                }
              }
            }
          }
        }
      }
    }
  }
  JOINT RightHip
  {
    OFFSET -9.412 3.9771 -0.7758
    CHANNELS 6 Xposition Yposition Zposition Zrotation Xrotation Yrotation
    JOINT RightKnee
    {
      OFFSET -0.7531 -40.938 0
      CHANNELS 6 Xposition Yposition Zposition Zrotation Xrotation Yrotation
      JOINT RightAnkle
      {
        OFFSET 0 -40.1986 0
        CHANNELS 6 Xposition Yposition Zposition Zrotation Xrotation Yrotation
        JOINT RightToe
        {
          OFFSET 0 -4.4182 9.239
          CHANNELS 6 Xposition Yposition Zposition Zrotation Xrotation Yrotation
          End Site
          {
            OFFSET 0 0 6.1981
          }
        }
      }
    }
  }
  JOINT LeftHip
  {
    OFFSET 9.4119 3.9773 -0.7758
    CHANNELS 6 Xposition Yposition Zposition Zrotation Xrotation Yrotation
    JOINT LeftKnee
    {
      OFFSET 0.7532 -40.9383 0
      CHANNELS 6 Xposition Yposition Zposition Zrotation Xrotation Yrotation
      JOINT LeftAnkle
      {
        OFFSET 0 -40.1986 0
        CHANNELS 6 Xposition Yposition Zposition Zrotation Xrotation Yrotation
        JOINT LeftToe
        {
          OFFSET 0 -4.4182 9.239
          CHANNELS 6 Xposition Yposition Zposition Zrotation Xrotation Yrotation
          End Site
          {
            OFFSET 0 0 6.1981
          }
        }
      }
    }
  }
}
MOTION
Frames:	4
Frame Time:	0.0333333
-35.867 11.0822 -40.6513 -178.508 90 -1.48833 0 8.7983 -4.7612 -0.30497 4.69876 -0.162152 -7.10543e-015 8.0291 0.4195 -0.599585 9.39829 -0.300634 0 9.9351 -2.2114 -0.599587 9.39832 -0.300635 0 22.3885 -0.4656 -2.52183e-006 -12.4855 -1.29559e-006 -0.0001 12.643 3.4389 -0.0080779 -5.92606 7.89646 2.2603 21.606 7.4023 -5.84034 10.6661 -15.2399 13.5163 -1.1332 -5.0146 29.9159 43.7078 27.5965 -0.0995 -28.05 -0.2431 -54.3966 -17.6272 -70.6459 0.0679 -23.3996 -0.1402 38.6829 -7.72558 -27.6555 0.7932 -9.06901 2.5189 5.56597e-015 1.59028e-015 -1.8487e-014 -0.8272 -3.3923 0.5977 4.77083e-015 0 -1.47101e-014 -0.5649 -2.3158 0.4082 4.77083e-015 0 -1.37161e-014 0.915899 -9.20441 0.2193 5.56597e-015 1.59028e-015 -1.8487e-014 0.0117 -4.1944 -0.0248 -0.0128264 0.00232687 8.72237e-005 0.0071 -2.3249 -0.0142 -7.95139e-016 -1.59028e-015 -2.28602e-015 0.6113 -8.72311 -2.0637 5.56597e-015 1.59028e-015 -1.8487e-014 -0.1927 -3.8059 -0.2383 -0.0160665 0.00297893 0.000856425 -0.1091 -2.1688 -0.1362 4.55184e-031 4.77083e-015 -5.46658e-015 -0.6151 -8.09471 -3.5641 5.56597e-015 1.59028e-015 -1.8487e-014 -0.4882 -2.341 -0.6462 -0.0125899 0.00312005 0.00282077 -0.3575 -1.7167 -0.4742 -1.59028e-015 4.77083e-015 -1.19271e-015 -1.42 -1.8761 1.4223 5.56597e-015 1.59028e-015 -1.8487e-014 -1.1471 -3.4929 2.6334 4.77083e-015 0 -1.47101e-014 -0.823 -2.3 1.6571 4.77083e-015 0 -1.37161e-014 -2.2603 21.606 7.4023 4.76366 10.7272 9.87261 -13.5187 -1.1334 -5.0155 -34.0806 41.7402 -20.8607 0.0994 -28.0499 -0.2431 52.7489 -18.8707 70.7547 -0.0679 -23.3996 -0.1402 -38.5922 -8.80693 25.6907 -0.7932 -9.0691 2.5189 -7.95139e-015 3.18055e-015 9.14409e-015 0.8272 -3.3923 0.5977 -4.3384e-006 -1.6918e-008 1.95445e-006 0.565 -2.3158 0.4082 4.3384e-006 1.69179e-008 -1.95445e-006 -0.916 -9.2044 0.2193 -7.95139e-015 3.18055e-015 9.14409e-015 -0.0117 -4.1944 -0.0248 0.0129513 0.00231154 -8.66355e-005 -0.0071 -2.3249 -0.0142 2.72345e-006 1.03588e-006 -2.48085e-006 -0.6113 -8.7231 -2.0637 -7.95139e-015 3.18055e-015 9.14409e-015 0.1927 -3.8059 -0.2383 0.0163431 0.00303978 -0.000864849 0.1091 -2.1688 -0.1362 8.82781e-032 -6.36111e-015 7.95139e-016 0.6151 -8.0947 -3.564 -7.95139e-015 3.18055e-015 9.14409e-015 0.4882 -2.341 -0.6462 0.0145742 0.0036672 -0.00325962 0.3574 -1.7166 -0.4742 -1.71789e-006 7.23648e-006 5.73963e-006 1.4199 -1.8761 1.4221 -7.95139e-015 3.18055e-015 9.14409e-015 1.1472 -3.4929 2.6336 -4.3384e-006 -1.6918e-008 1.95445e-006 0.8229 -2.3 1.6571 4.3384e-006 1.69179e-008 -1.95445e-006 -9.412 3.9771 -0.7758 -10.4191 -18.4445 -5.94379 -0.7531 -40.938 0 -18.484 75.526 15.5104 7.10543e-015 -40.1986 1.42109e-014 -2.40921 16.9524 2.69399 7.10543e-015 -4.4182 9.239 4.12174e-007 -8.80773e-009 -1.11079e-007 9.4119 3.9773 -0.7758 10.4024 -18.4413 5.93048 0.7532 -40.9383 -1.77636e-015 18.4085 75.5295 -15.4481 -7.10543e-015 -40.1986 0 2.38765 16.9428 -2.69531 0 -4.4182 9.239 1.76556e-031 -3.18055e-015 3.18055e-015 
-35.867 11.0185 -40.3117 -177.887 90 -2.10916 -7.10543e-015 8.7983 -4.7612 -0.304208 4.76737 -0.163593 7.10543e-015 8.0291 0.4195 -0.597823 9.53554 -0.303266 -7.10543e-015 9.9351 -2.2114 -0.597825 9.53559 -0.303266 -7.10543e-015 22.3885 -0.4656 -1.98035e-006 -11.8393 -1.0361e-006 -0.0001 12.643 3.4389 -0.014359 -5.82951 7.76706 2.2603 21.606 7.4023 -6.4349 10.1288 -15.2927 13.5163 -1.1332 -5.0146 30.3678 43.4034 27.3256 -0.0995 -28.05 -0.2431 -53.6343 -17.6556 -70.3797 0.0679 -23.3996 -0.1402 38.478 -7.573 -27.3382 0.7932 -9.069 2.5189 -3.31249e-006 6.60183e-006 -8.00364e-007 -0.8272 -3.3923 0.5977 -4.14065e-006 7.86329e-007 2.30721e-006 -0.5649 -2.3158 0.4082 -8.27607e-033 -1.59028e-015 -2.98177e-016 0.9159 -9.2044 0.2193 -3.31249e-006 6.60183e-006 -8.00364e-007 0.0117 -4.1944 -0.0248 -0.0128033 0.00231566 8.63512e-005 0.0071 -2.3249 -0.0142 -4.96564e-032 -1.59028e-015 -1.78906e-015 0.6113 -8.7231 -2.0637 -3.31249e-006 6.60183e-006 -8.00364e-007 -0.1927 -3.8059 -0.2383 -0.016039 0.00298058 0.000858756 -0.1091 -2.1688 -0.1362 -1.65626e-006 -1.42097e-007 -4.00267e-007 -0.6151 -8.0947 -3.5641 -3.31249e-006 6.60183e-006 -8.00364e-007 -0.4882 -2.341 -0.6462 -0.0125588 0.00311646 0.00282675 -0.3575 -1.7167 -0.4742 2.38542e-015 -4.77083e-015 -5.06901e-015 -1.42 -1.8761 1.4223 -3.31249e-006 6.60183e-006 -8.00364e-007 -1.1471 -3.4929 2.6334 -4.14065e-006 7.86329e-007 2.30721e-006 -0.823 -2.3 1.6571 -8.27607e-033 -1.59028e-015 -2.98177e-016 -2.2603 21.606 7.4023 5.36888 10.192 9.91975 -13.5187 -1.1334 -5.0155 -34.4525 41.4207 -20.6629 0.0994 -28.0499 -0.2431 52.0499 -18.9047 70.5022 -0.0679 -23.3996 -0.1402 -38.4164 -8.6097 25.4315 -0.7932 -9.0691 2.5189 1.32417e-031 -3.18055e-015 2.38542e-015 0.8272 -3.3923 0.5977 -7.95139e-016 6.36111e-015 9.14409e-015 0.565 -2.3158 0.4082 -7.95139e-016 3.18055e-015 2.38542e-015 -0.916 -9.2044 0.2193 1.32417e-031 -3.18055e-015 2.38542e-015 -0.0117 -4.1944 -0.0248 0.0129453 0.00230072 -8.20692e-005 -0.0071 -2.3249 -0.0142 -2.38542e-015 -3.18055e-015 -5.96354e-016 -0.6113 -8.7231 -2.0637 1.32417e-031 -3.18055e-015 2.38542e-015 0.1927 -3.8059 -0.2383 0.0163699 0.0030361 -0.000885093 0.1091 -2.1688 -0.1362 1.05934e-030 9.54166e-015 -6.36111e-015 0.6151 -8.0947 -3.564 1.32417e-031 -3.18055e-015 2.38542e-015 0.4882 -2.341 -0.6462 0.0145556 0.00366965 -0.0032617 0.3574 -1.7166 -0.4742 -7.95139e-016 0 -2.98177e-015 1.4199 -1.8761 1.4221 1.32417e-031 -3.18055e-015 2.38542e-015 1.1472 -3.4929 2.6336 -7.95139e-016 6.36111e-015 9.14409e-015 0.8229 -2.3 1.6571 -7.95139e-016 3.18055e-015 2.38542e-015 -9.412 3.9771 -0.7758 -10.3932 -18.1787 -5.90068 -0.7531 -40.938 3.55271e-015 -17.3257 74.889 14.4015 0 -40.1986 -1.42109e-014 -2.48437 17.3909 2.67728 0 -4.4182 9.239 -2.18372e-007 -4.24376e-008 -8.07035e-007 9.4119 3.9773 -0.7758 10.3773 -18.1756 5.88785 0.7532 -40.9383 1.77636e-015 17.256 74.892 -14.3446 7.10543e-015 -40.1986 0 2.46378 17.3817 -2.67864 -1.42109e-014 -4.4182 9.239 -4.37173e-007 2.12785e-007 -1.61422e-006 
-35.867 10.961 -40.005 -179.419 90 -0.5776 1.42109e-014 8.7983 -4.7612 -0.303174 4.82945 -0.164829 0 8.0291 0.4195 -0.595538 9.65968 -0.305542 -7.10543e-015 9.9351 -2.2114 -0.59554 9.65973 -0.305543 7.10543e-015 22.3885 -0.4656 -3.2052e-006 -11.2573 -1.23514e-006 -0.0001 12.643 3.4389 -0.0198226 -5.74283 7.65087 2.2603 21.606 7.4023 -6.97166 9.64391 -15.3456 13.5163 -1.1332 -5.0146 30.7708 43.1286 27.086 -0.0995 -28.05 -0.2431 -52.9455 -17.679 -70.1402 0.0679 -23.3996 -0.1402 38.2921 -7.4363 -27.0513 0.7932 -9.069 2.5189 -3.97569e-016 0 -4.47266e-015 -0.8272 -3.3923 0.5977 -1.19271e-015 -1.59028e-015 2.18663e-015 -0.5649 -2.3158 0.4082 -7.95139e-016 -3.18055e-015 -8.94531e-016 0.9159 -9.2044 0.2193 -3.97569e-016 0 -4.47266e-015 0.0117 -4.1944 -0.0248 -0.0128418 0.00231657 7.4105e-005 0.0071 -2.3249 -0.0142 -1.19271e-015 4.77083e-015 5.76476e-015 0.6113 -8.7231 -2.0637 -3.97569e-016 0 -4.47266e-015 -0.1927 -3.8059 -0.2383 -0.0160457 0.00299995 0.00086093 -0.1091 -2.1688 -0.1362 -6.93068e-007 -1.24987e-005 -5.83833e-006 -0.6151 -8.0947 -3.5641 -3.97569e-016 0 -4.47266e-015 -0.4882 -2.341 -0.6462 -0.0125979 0.00311439 0.00282366 -0.3575 -1.7167 -0.4742 3.31322e-006 8.32732e-007 7.9856e-007 -1.42 -1.8761 1.4223 -3.97569e-016 0 -4.47266e-015 -1.1471 -3.4929 2.6334 -1.19271e-015 -1.59028e-015 2.18663e-015 -0.823 -2.3 1.6571 -7.95139e-016 -3.18055e-015 -8.94531e-016 -2.2603 21.606 7.4023 5.91521 9.70879 9.96765 -13.5187 -1.1334 -5.0155 -34.7836 41.134 -20.4888 0.0994 -28.0499 -0.2431 51.4187 -18.9344 70.2755 -0.0679 -23.3996 -0.1402 -38.2568 -8.43272 25.1975 -0.7932 -9.0691 2.5189 7.95139e-016 3.18055e-015 9.93923e-016 0.8272 -3.3923 0.5977 -4.5074e-006 -8.60315e-006 5.62448e-006 0.565 -2.3158 0.4082 1.0913e-005 3.6808e-006 -2.3048e-006 -0.916 -9.2044 0.2193 7.95139e-016 3.18055e-015 9.93923e-016 -0.0117 -4.1944 -0.0248 0.0129425 0.00230745 -7.88106e-005 -0.0071 -2.3249 -0.0142 -7.95139e-016 -3.18055e-015 -5.96354e-016 -0.6113 -8.7231 -2.0637 7.95139e-016 3.18055e-015 9.93923e-016 0.1927 -3.8059 -0.2383 0.0163516 0.00302775 -0.000863635 0.1091 -2.1688 -0.1362 2.71837e-006 1.43613e-007 -2.48696e-006 0.6151 -8.0947 -3.564 7.95139e-016 3.18055e-015 9.93923e-016 0.4882 -2.341 -0.6462 0.0146086 0.00367185 -0.00326426 0.3574 -1.7166 -0.4742 7.95139e-016 -3.18055e-015 -4.37326e-015 1.4199 -1.8761 1.4221 7.95139e-016 3.18055e-015 9.93923e-016 1.1472 -3.4929 2.6336 -4.5074e-006 -8.60315e-006 5.62448e-006 0.8229 -2.3 1.6571 1.0913e-005 3.6808e-006 -2.3048e-006 -9.412 3.9771 -0.7758 -10.37 -17.9388 -5.86209 -0.7531 -40.938 -5.32907e-015 -16.3579 74.3092 13.4783 0 -40.1986 0 -2.55257 17.7865 2.66269 0 -4.4182 9.239 3.09157e-007 6.37086e-008 -8.32113e-008 9.4119 3.9773 -0.7758 10.3547 -17.9356 5.8498 0.7532 -40.9383 -5.32907e-015 16.2933 74.3116 -13.4263 0 -40.1986 0 2.53286 17.7778 -2.66406 -7.10543e-015 -4.4182 9.239 1.03048e-007 -1.9484e-008 -2.77518e-008 
-35.867 10.9034 -39.6984 -177.304 90 -2.69201 7.10543e-015 8.7983 -4.7612 -0.302183 4.8916 -0.166067 7.10543e-015 8.0291 0.4195 -0.593341 9.78404 -0.307822 7.10543e-015 9.9351 -2.2114 -0.593341 9.78407 -0.307822 0 22.3885 -0.4656 -2.14934e-006 -10.6744 -1.19064e-006 -0.0001 12.643 3.4389 -0.025111 -5.65611 7.5347 2.2603 21.606 7.4023 -7.50848 9.1591 -15.403 13.5163 -1.1332 -5.0146 31.1695 42.8537 26.8509 -0.0995 -28.05 -0.2431 -52.2565 -17.7005 -69.9015 0.0679 -23.3996 -0.1402 38.1055 -7.30047 -26.7641 0.7932 -9.069 2.5189 2.61929e-006 -8.73835e-006 -5.03583e-006 -0.8272 -3.3923 0.5977 6.94558e-007 1.44955e-006 5.83246e-006 -0.5649 -2.3158 0.4082 6.62086e-032 -1.59028e-015 2.38542e-015 0.9159 -9.2044 0.2193 2.61929e-006 -8.73835e-006 -5.03583e-006 0.0117 -4.1944 -0.0248 -0.0128097 0.00232507 8.42966e-005 0.0071 -2.3249 -0.0142 -3.97569e-016 -1.59028e-014 2.78299e-015 0.6113 -8.7231 -2.0637 2.61929e-006 -8.73835e-006 -5.03583e-006 -0.1927 -3.8059 -0.2383 -0.0160375 0.00300362 0.000863181 -0.1091 -2.1688 -0.1362 4.41391e-032 -1.27222e-014 1.98785e-016 -0.6151 -8.0947 -3.5641 2.61929e-006 -8.73835e-006 -5.03583e-006 -0.4882 -2.341 -0.6462 -0.0125666 0.00312745 0.00282979 -0.3575 -1.7167 -0.4742 3.97569e-016 1.59028e-015 -1.88845e-015 -1.42 -1.8761 1.4223 2.61929e-006 -8.73835e-006 -5.03583e-006 -1.1471 -3.4929 2.6334 6.94558e-007 1.44955e-006 5.83246e-006 -0.823 -2.3 1.6571 6.62086e-032 -1.59028e-015 2.38542e-015 -2.2603 21.606 7.4023 6.46155 9.22568 10.0202 -13.5187 -1.1334 -5.0155 -35.1135 40.8444 -20.3167 0.0994 -28.0499 -0.2431 50.7865 -18.9603 70.0465 -0.0679 -23.3996 -0.1402 -38.0965 -8.25637 24.9631 -0.7932 -9.0691 2.5189 2.38542e-015 3.18055e-015 -1.39149e-015 0.8272 -3.3923 0.5977 2.7756e-006 8.21404e-007 -3.70718e-006 0.565 -2.3158 0.4082 7.95139e-016 -9.54166e-015 -8.54774e-015 -0.916 -9.2044 0.2193 2.38542e-015 3.18055e-015 -1.39149e-015 -0.0117 -4.1944 -0.0248 0.0129734 0.00231865 -8.58929e-005 -0.0071 -2.3249 -0.0142 -1.59028e-015 -1.59028e-014 3.57812e-015 -0.6113 -8.7231 -2.0637 2.38542e-015 3.18055e-015 -1.39149e-015 0.1927 -3.8059 -0.2383 0.0163159 0.00304532 -0.000877552 0.1091 -2.1688 -0.1362 1.59028e-015 0 1.98785e-016 0.6151 -8.0947 -3.564 2.38542e-015 3.18055e-015 -1.39149e-015 0.4882 -2.341 -0.6462 0.0146031 0.00367449 -0.0032654 0.3574 -1.7166 -0.4742 7.95139e-016 0 2.38542e-015 1.4199 -1.8761 1.4221 2.38542e-015 3.18055e-015 -1.39149e-015 1.1472 -3.4929 2.6336 2.7756e-006 8.21404e-007 -3.70718e-006 0.8229 -2.3 1.6571 7.95139e-016 -9.54166e-015 -8.54774e-015 -9.412 3.9771 -0.7758 -10.3471 -17.6984 -5.82398 -0.7531 -40.938 3.55271e-015 -15.4563 73.725 12.6215 -7.10543e-015 -40.1986 1.42109e-014 -2.62107 18.182 2.64846 0 -4.4182 9.239 -4.12226e-007 3.28203e-006 1.10889e-007 9.4119 3.9773 -0.7758 10.3323 -17.6961 5.81205 0.7532 -40.9383 5.32907e-015 15.3974 73.7279 -12.5746 0 -40.1986 1.42109e-014 2.60224 18.1736 -2.64988 -1.42109e-014 -4.4182 9.239 -1.03053e-007 2.20058e-008 2.77362e-008 
